<svg width="20" height="20" viewBox="0 0 20 20" fill="none" xmlns="http://www.w3.org/2000/svg">
<path d="M16.6667 2.5H15.8333V13.3333H16.6667C17.1087 13.3333 17.5326 13.1577 17.8452 12.8452C18.1577 12.5326 18.3333 12.1087 18.3333 11.6667V4.16667C18.3333 3.72464 18.1577 3.30072 17.8452 2.98816C17.5326 2.67559 17.1087 2.5 16.6667 2.5ZM3.33332 13.3333H9.16666L8.23166 16.14C8.14823 16.3905 8.1255 16.6572 8.16535 16.9182C8.20519 17.1792 8.30647 17.427 8.46084 17.6412C8.61521 17.8554 8.81826 18.0298 9.05325 18.1501C9.28825 18.2705 9.54847 18.3333 9.81249 18.3333H9.99999L14.1667 13.8017V2.5H4.99999L1.71916 9.7075L1.66666 9.95167V11.6667C1.66666 12.1087 1.84225 12.5326 2.15481 12.8452C2.46737 13.1577 2.8913 13.3333 3.33332 13.3333Z" fill="#C0C0C0"/>
</svg>
