<svg width="32" height="28" viewBox="0 0 32 28" fill="none" xmlns="http://www.w3.org/2000/svg">
<path d="M0 14L7.7769 20.2215V15.5554H21.7753V12.4447H7.7769V7.77851L0 14Z" fill="#366E8F"/>
<path d="M17.1106 5.34446e-05C15.2714 -0.00504617 13.4495 0.354852 11.7504 1.0589C10.0513 1.76295 8.50873 2.79715 7.21216 4.10159L9.41146 6.3009C11.4677 4.24469 14.202 3.11081 17.1106 3.11081C20.0192 3.11081 22.7535 4.24469 24.8097 6.3009C26.8659 8.35711 27.9998 11.0915 27.9998 14C27.9998 16.9086 26.8659 19.6429 24.8097 21.6992C22.7535 23.7554 20.0192 24.8892 17.1106 24.8892C14.202 24.8892 11.4677 23.7554 9.41146 21.6992L7.21216 23.8985C9.85475 26.5426 13.3699 28 17.1106 28C20.8513 28 24.3664 26.5426 27.009 23.8985C29.6532 21.2559 31.1106 17.7407 31.1106 14C31.1106 10.2593 29.6532 6.74418 27.009 4.10159C25.7125 2.79715 24.1699 1.76295 22.4708 1.0589C20.7717 0.354852 18.9498 -0.00504617 17.1106 5.34446e-05Z" fill="#366E8F"/>
</svg>
