<svg width="50" height="29" viewBox="0 0 50 29" fill="none" xmlns="http://www.w3.org/2000/svg">
<path fill-rule="evenodd" clip-rule="evenodd" d="M8.44722 0H0L13.5155 28.1574L18.0883 20.0856L17.2843 18.4106L14.1237 11.8261L8.44722 0Z" fill="white"/>
<path d="M17.2843 18.4106L18.0883 20.0856L13.5155 28.1574L22.1505 12.9524L18.3023 4.88061L14.1237 11.8261L17.2843 18.4106Z" fill="#C0C0C0"/>
<path fill-rule="evenodd" clip-rule="evenodd" d="M24.4031 0H15.9559L29.4714 28.1574L34.0442 20.0856L33.2402 18.4106L30.0796 11.8261L24.4031 0Z" fill="white"/>
<path fill-rule="evenodd" clip-rule="evenodd" d="M33.2402 18.4106L34.0442 20.0856L36.989 15L38.1472 13L34.2582 4.88061L30.0796 11.8261L33.2402 18.4106Z" fill="#C0C0C0"/>
<path d="M40.3589 0H31.9117L45.4272 28.1574L50 20.0856L49.196 18.4106L40.3589 0Z" fill="white"/>
</svg>
